<?xml version="1.0" encoding="UTF-8"?>
<svg xmlns="http://www.w3.org/2000/svg" version="1.1" width="200" height="200" viewBox="0 0 200 200"><rect x="0" y="0" width="200" height="200" fill="#ffffff"/><g transform="scale(6.897)"><g transform="translate(0,0)"><path fill-rule="evenodd" d="M9 0L9 1L10 1L10 2L8 2L8 3L9 3L9 4L10 4L10 5L9 5L9 6L8 6L8 8L4 8L4 9L3 9L3 8L0 8L0 10L1 10L1 12L2 12L2 14L1 14L1 13L0 13L0 14L1 14L1 15L3 15L3 17L2 17L2 16L0 16L0 17L1 17L1 18L0 18L0 19L1 19L1 20L0 20L0 21L1 21L1 20L2 20L2 21L4 21L4 20L5 20L5 21L7 21L7 20L8 20L8 25L10 25L10 26L12 26L12 27L9 27L9 26L8 26L8 29L11 29L11 28L12 28L12 29L15 29L15 28L14 28L14 27L15 27L15 25L16 25L16 26L17 26L17 28L16 28L16 29L17 29L17 28L18 28L18 27L19 27L19 29L22 29L22 26L20 26L20 25L23 25L23 28L24 28L24 29L25 29L25 28L26 28L26 27L25 27L25 26L28 26L28 27L27 27L27 29L29 29L29 28L28 28L28 27L29 27L29 25L28 25L28 23L29 23L29 22L26 22L26 23L25 23L25 21L26 21L26 20L24 20L24 19L26 19L26 17L25 17L25 18L23 18L23 17L24 17L24 14L23 14L23 8L21 8L21 5L20 5L20 4L19 4L19 2L21 2L21 1L20 1L20 0L19 0L19 2L18 2L18 1L17 1L17 0L16 0L16 1L15 1L15 0L12 0L12 1L10 1L10 0ZM13 1L13 3L12 3L12 2L11 2L11 3L12 3L12 4L11 4L11 5L10 5L10 6L9 6L9 7L10 7L10 6L11 6L11 8L12 8L12 10L10 10L10 8L9 8L9 10L8 10L8 9L5 9L5 11L4 11L4 10L3 10L3 13L4 13L4 14L3 14L3 15L5 15L5 12L7 12L7 13L6 13L6 14L7 14L7 15L6 15L6 16L4 16L4 17L3 17L3 18L1 18L1 19L3 19L3 20L4 20L4 19L5 19L5 20L7 20L7 19L5 19L5 18L4 18L4 17L6 17L6 18L10 18L10 19L8 19L8 20L9 20L9 22L10 22L10 19L12 19L12 20L11 20L11 21L12 21L12 20L13 20L13 16L12 16L12 15L8 15L8 14L7 14L7 13L8 13L8 12L7 12L7 11L6 11L6 10L8 10L8 11L9 11L9 13L10 13L10 14L11 14L11 13L12 13L12 12L13 12L13 8L12 8L12 6L13 6L13 7L14 7L14 9L15 9L15 11L14 11L14 13L13 13L13 15L14 15L14 14L15 14L15 15L18 15L18 13L20 13L20 12L21 12L21 10L20 10L20 9L19 9L19 8L20 8L20 6L19 6L19 5L18 5L18 2L17 2L17 5L16 5L16 6L15 6L15 4L16 4L16 2L15 2L15 1ZM14 2L14 3L13 3L13 4L15 4L15 2ZM13 5L13 6L14 6L14 7L15 7L15 8L16 8L16 9L18 9L18 8L19 8L19 6L18 6L18 5L17 5L17 6L16 6L16 7L15 7L15 6L14 6L14 5ZM17 6L17 7L16 7L16 8L17 8L17 7L18 7L18 6ZM26 8L26 9L27 9L27 10L26 10L26 11L28 11L28 12L27 12L27 14L25 14L25 15L27 15L27 16L28 16L28 18L27 18L27 20L28 20L28 21L29 21L29 20L28 20L28 19L29 19L29 13L28 13L28 12L29 12L29 9L27 9L27 8ZM1 9L1 10L2 10L2 9ZM9 10L9 11L10 11L10 10ZM16 10L16 11L17 11L17 13L18 13L18 10ZM24 10L24 11L25 11L25 10ZM11 11L11 12L12 12L12 11ZM15 12L15 13L16 13L16 12ZM25 12L25 13L26 13L26 12ZM19 14L19 16L21 16L21 15L23 15L23 14L21 14L21 15L20 15L20 14ZM7 15L7 16L6 16L6 17L11 17L11 18L12 18L12 16L8 16L8 15ZM14 16L14 18L15 18L15 19L16 19L16 16ZM17 17L17 18L18 18L18 17ZM20 17L20 18L19 18L19 19L18 19L18 20L19 20L19 21L18 21L18 22L16 22L16 20L14 20L14 22L13 22L13 23L15 23L15 24L16 24L16 23L18 23L18 24L17 24L17 26L19 26L19 25L20 25L20 23L18 23L18 22L19 22L19 21L20 21L20 20L22 20L22 19L23 19L23 18L21 18L21 17ZM19 19L19 20L20 20L20 19ZM21 21L21 24L24 24L24 21ZM22 22L22 23L23 23L23 22ZM10 23L10 25L11 25L11 24L12 24L12 23ZM26 23L26 25L27 25L27 23ZM18 24L18 25L19 25L19 24ZM12 25L12 26L14 26L14 25ZM12 27L12 28L13 28L13 27ZM24 27L24 28L25 28L25 27ZM0 0L0 7L7 7L7 0ZM1 1L1 6L6 6L6 1ZM2 2L2 5L5 5L5 2ZM22 0L22 7L29 7L29 0ZM23 1L23 6L28 6L28 1ZM24 2L24 5L27 5L27 2ZM0 22L0 29L7 29L7 22ZM1 23L1 28L6 28L6 23ZM2 24L2 27L5 27L5 24Z" fill="#000000"/></g></g></svg>
